<svg xmlns="http://www.w3.org/2000/svg" width="24" height="24" viewBox="0 0 24 24" shape-rendering="crispEdges" aria-hidden="true">
  <!-- Fire -->
  <path fill="#ef4444" d="M8 11V8h2V5h2V1h2v4h3v3h2v3h2v6H7z"/>
  <path fill="#f97316" d="M11 10V7h2V4h1v4h3v3h2v5h-8z"/>
  <path fill="#facc15" d="M13 11V8h2v3h2v4h-5v-2h1z"/>
  <!-- Pixel brain -->
  <path fill="#1f2937" d="M4 11h2V8h3V6h4v1h3V6h3v2h2v3h1v7h-2v2h-4v2h-4v-1H9v-1H6v-2H4z"/>
  <path fill="#c084fc" d="M6 12V9h3V8h3v2h2V8h3v1h2v3h1v4h-2v2h-4v2h-3v-2H9v-1H7v-2H6z"/>
  <path fill="#a855f7" d="M13 11h2v3h-2v2h-2v-2h2zM17 10h2v2h-2zM8 13h2v2H8zM15 17h3v2h-3z"/>
  <path fill="#f0abfc" d="M7 10h2v2H7zM10 9h2v3h-2zM16 13h3v2h-3zM11 17h2v2h-2z"/>
</svg>
